<svg t="1661742396377" class="icon" viewBox="0 0 1024 1024" version="1.1" xmlns="http://www.w3.org/2000/svg" p-id="1905"
  width="200" height="200">
  <!-- 左耳朵 -->
  <!-- <path
    d="M195.131695 675.013453c0 38.039534 30.83939 68.878924 68.878924 68.878924 38.039534 0 68.878924-30.83939 68.878924-68.878924 0-38.039534-30.83939-68.878924-68.878924-68.878924-38.039534 0-68.878924 30.83939-68.878924 68.878924z"
    fill="#F2DCC9" p-id="1907"></path> -->
  <!-- <path
    d="M231.867121 675.018045a32.143498 32.143498 0 1 0 64.286996 0.009184 32.143498 32.143498 0 0 0-64.286996-0.009184z"
    fill="#E89E80" p-id="1908"></path> -->
  <!-- 右耳朵 -->
  <!-- <path
    d="M691.059946 675.013453c0 38.039534 30.83939 68.878924 68.878924 68.878924 38.039534 0 68.878924-30.83939 68.878924-68.878924 0-38.039534-30.83939-68.878924-68.878924-68.878924-38.039534 0-68.878924 30.83939-68.878924 68.878924z"
    fill="#F2DCC9" p-id="1909"></path>
  <path
    d="M727.795372 675.018045a32.143498 32.143498 0 1 0 64.286996 0.009184 32.143498 32.143498 0 0 0-64.286996-0.009184z"
    fill="#E89E80" p-id="1910"></path> -->

  <!-- 嘴巴 -->
  <path
    d="M429.320036 789.811659c0 45.648359 37.00635 82.654709 82.654708 82.654709s82.654709-37.00635 82.654709-82.654709H429.320036z"
    fill="currentColor" p-id="1914"></path>
  <!-- 害羞点 -->
  <path
    d="M327.149632 702.565022a10.331839 10.331839 0 0 1 10.331839 10.331839v34.439462a10.331839 10.331839 0 0 1-10.331839 10.331838h-6.887892a10.331839 10.331839 0 0 1-10.331839-10.331838v-34.439462a10.331839 10.331839 0 0 1 10.331839-10.331839h6.887892z m41.327355 0a10.331839 10.331839 0 0 1 10.331838 10.331839v34.439462a10.331839 10.331839 0 0 1-10.331838 10.331838h-6.887893a10.331839 10.331839 0 0 1-10.331838-10.331838v-34.439462a10.331839 10.331839 0 0 1 10.331838-10.331839h6.887893zM666.952323 702.565022a10.331839 10.331839 0 0 1 10.331838 10.331839v34.439462a10.331839 10.331839 0 0 1-10.331838 10.331838h-6.887893a10.331839 10.331839 0 0 1-10.331838-10.331838v-34.439462a10.331839 10.331839 0 0 1 10.331838-10.331839h6.887893z m41.327354 0a10.331839 10.331839 0 0 1 10.331839 10.331839v34.439462a10.331839 10.331839 0 0 1-10.331839 10.331838h-6.887892a10.331839 10.331839 0 0 1-10.331839-10.331838v-34.439462a10.331839 10.331839 0 0 1 10.331839-10.331839h6.887892z"
    fill="#F5B196" p-id="1915"></path>
</svg>