<svg t="1661762629442" class="icon" viewBox="0 0 1024 1024" version="1.1" xmlns="http://www.w3.org/2000/svg" p-id="2051"
  width="200" height="200">
  <path class="test"
    d="M420.135822 790.755556h204.8v130.844444c0 56.553244-45.852444 102.4-102.4 102.4-56.558933 0-102.4-45.846756-102.4-102.4v-130.844444z"
    fill="#C5AC95" p-id="2052"></path>
  <path
    d="M120.211911 573.519644c0 50.050844 40.573156 90.624 90.624 90.624 50.045156 0 90.618311-40.573156 90.618311-90.624 0-50.045156-40.573156-90.618311-90.624-90.618311-50.045156 0-90.618311 40.573156-90.618311 90.624z"
    fill="#C9AB90" p-id="2053"></path>
  <path
    d="M492.760178 110.353067c166.832356 0 302.062933 135.236267 302.062933 302.068622v342.340267c0 88.974222-72.123733 161.097956-161.097955 161.097955H311.517867c-66.724978 0-120.820622-54.101333-120.820623-120.826311V412.421689c0-166.832356 135.230578-302.068622 302.062934-302.068622z"
    fill="#EBD3BD" p-id="2055"></path>
  <path
    d="M724.343467 573.519644c0 50.050844 40.573156 90.624 90.618311 90.624s90.624-40.573156 90.624-90.624c0-50.045156-40.578844-90.618311-90.624-90.618311s-90.624 40.573156-90.624 90.624z"
    fill="#EBD3BD" p-id="2056"></path>
  <path
    d="M774.684444 563.450311a40.277333 40.277333 0 1 0 80.554667 0.017067 40.277333 40.277333 0 0 0-80.554667-0.017067z"
    fill="#E89E80" p-id="2057"></path>

  <path
    d="M492.760178 442.624c0 44.487111 36.067556 80.554667 80.554666 80.554667s80.543289-36.067556 80.543289-80.554667-36.061867-80.548978-80.548977-80.548978-80.554667 36.067556-80.554667 80.554667z"
    fill="#FFFFFF" p-id="2060"></path>
  <path d="M533.037511 447.658667a35.242667 35.242667 0 1 0 70.479645 0 35.242667 35.242667 0 0 0-70.485334 0z"
    fill="#514141" p-id="2061"></path>

  <path
    d="M210.830222 442.624a80.554667 80.554667 0 1 0 161.103645 0c0-44.487111-36.067556-80.548978-80.554667-80.548978s-80.548978 36.067556-80.548978 80.554667z"
    fill="#FFFFFF" p-id="2058"></path>
  <path d="M251.107556 447.658667a35.242667 35.242667 0 1 0 70.485333 0 35.242667 35.242667 0 0 0-70.485333 0z"
    fill="#514141" p-id="2059"></path>

  <path
    d="M407.176533 432.554667a35.9424 35.9424 0 0 1 33.769245 23.665777l37.558044 103.281778a70.485333 70.485333 0 0 1-66.224355 94.5664h-15.911823a70.485333 70.485333 0 0 1-65.223111-97.166222l41.329778-101.046044a37.495467 37.495467 0 0 1 34.702222-23.301689z"
    fill="#E89E80" p-id="2063"></path>

  <path
    d="M189.943536 336.16414m32.811066-9.408421l87.496175-25.089125q32.811066-9.408422 42.219488 23.402644l0 0q9.408422 32.811066-23.402644 42.219488l-87.496176 25.089124q-32.811066 9.408422-42.219488-23.402644l0 0q-9.408422-32.811066 23.402645-42.219487Z"
    fill="#4D4132" p-id="2066"></path>
  <path
    d="M471.33078 285.985891m32.811066 9.408422l131.244263 37.633687q32.811066 9.408422 23.402644 42.219487l0 0q-9.408422 32.811066-42.219487 23.402645l-131.244264-37.633687q-32.811066-9.408422-23.402644-42.219488l0 0q9.408422-32.811066 42.219488-23.402644Z"
    fill="#4D4132" p-id="2067"></path>
</svg>