<svg t="1661762629442" class="icon" viewBox="0 0 1024 1024" version="1.1" xmlns="http://www.w3.org/2000/svg" p-id="2051"
  width="200" height="200">
  <path
    d="M491.8784 588.913778a62.555022 62.555022 0 0 1 61.604978 12.071822l123.062044 107.6736a62.577778 62.577778 0 0 1 7.549156 86.328889l-5.637689 7.003022a62.577778 62.577778 0 0 1-1.649778 1.974045c-22.761244 26.0096-62.293333 28.649244-88.308622 5.893688l-27.886933-24.405333-28.842667 24.786489c-26.208711 22.528-65.718044 19.529956-88.240356-6.684444-0.318578-0.364089-0.625778-0.739556-0.938666-1.115023l-6.360178-7.759644a62.640356 62.640356 0 0 1-8.686933-13.994667l-33.348267 29.172622c-26.015289 22.755556-65.547378 20.115911-88.302933-5.893688a62.577778 62.577778 0 0 1-1.655467-1.974045l-5.637689-6.997333c-1.763556-2.195911-3.356444-4.471467-4.778667-6.815289l-24.7808 21.674667c-26.015289 22.755556-65.547378 20.1216-88.302933-5.888a62.577778 62.577778 0 0 1-1.655467-1.974045l-5.637689-6.997333a62.577778 62.577778 0 0 1 7.543467-86.334578l123.067733-107.6736c26.0096-22.755556 65.547378-20.115911 88.302934 5.893689a62.577778 62.577778 0 0 1 1.649778 1.974044l5.643377 6.997334c1.763556 2.195911 3.356444 4.471467 4.778667 6.815289l24.7808-21.674667a62.560711 62.560711 0 0 1 62.139733-11.889778z"
    fill="currentColor" p-id="2062"></path>
</svg>