<svg t="1661326788710" class="icon" viewBox="0 0 1107 1024" version="1.1" xmlns="http://www.w3.org/2000/svg" p-id="2603"
  width="200" height="200">
  <!-- 脖子 -->
  <!-- <path
    d="M457.42132 810.883249h187.126903v119.553299c0 51.673015-41.890437 93.563452-93.563451 93.563452s-93.563452-41.890437-93.563452-93.563452v-119.553299z"
    fill="#E6C9AE" p-id="2604"></path> -->
  <!-- 眼睛-黑色 -->
  <path
    d="M686.13198 519.796954c25.833909 0 46.781726 19.544365 46.781726 43.662944v37.425381c0 24.118579-20.947817 43.662944-46.781726 43.662944s-46.781726-19.544365-46.781726-43.662944V563.459898C639.350254 539.34132 660.298071 519.796954 686.13198 519.796954zM415.837563 519.796954c25.833909 0 46.781726 19.544365 46.781726 43.662944v37.425381c0 24.118579-20.947817 43.662944-46.781726 43.662944s-46.781726-19.544365-46.781725-43.662944V563.459898C369.055838 539.34132 390.003655 519.796954 415.837563 519.796954z"
    fill="#514141" p-id="2615"></path>
  <!-- 眼睛-白色点-左 -->
  <path
    d="M415.837563 550.984772m-20.791878 0a20.791878 20.791878 0 1 0 41.583757 0 20.791878 20.791878 0 1 0-41.583757 0Z"
    fill="#FFFFFF" p-id="2616"></path>
  <!-- 眼睛-白色点-右 -->
  <path
    d="M675.736041 550.984772m-20.791879 0a20.791878 20.791878 0 1 0 41.583757 0 20.791878 20.791878 0 1 0-41.583757 0Z"
    fill="#FFFFFF" p-id="2617"></path>
  <!-- 眉毛 -->
  <path
    d="M464.209868 516.45466l0.670538 0.462619c0.571777 0.337868 1.117563 0.706924 1.63736 1.112366 6.227168 4.823716 6.372711 12.537503 0.322275 17.226071-5.889299 4.563817-15.479553 4.574213-21.727513 0.119553l-0.504203-0.369056-0.05198 0.041584c-24.731939-17.413198-62.323655-17.475574-85.844467 0.119553l-0.774497 0.587371c-6.050437 4.688569-15.99935 4.574213-22.231716-0.249503-6.060832-4.698964-6.357117-12.137259-0.784893-16.851817l0.467817-0.374254c34.504122-26.738355 90.174376-27.455675 127.69332-2.588589l1.127959 0.764102zM760.494132 516.45466l0.670538 0.462619c0.571777 0.337868 1.117563 0.706924 1.63736 1.112366 6.227168 4.823716 6.372711 12.537503 0.322275 17.226071-5.889299 4.563817-15.479553 4.574213-21.727513 0.119553l-0.504203-0.369056-0.05198 0.041584c-24.731939-17.413198-62.323655-17.475574-85.844467 0.119553l-0.774497 0.587371c-6.050437 4.688569-15.99935 4.574213-22.231716-0.249503-6.060832-4.698964-6.357117-12.137259-0.784893-16.851817l0.467817-0.374254c34.504122-26.738355 90.174376-27.455675 127.69332-2.588589l1.127959 0.764102zM464.209868 422.402599l0.670538 0.571777c0.571777 0.426234 1.117563 0.888853 1.63736 1.398253 6.227168 6.029645 6.372711 15.671878 0.322275 21.52999-5.889299 5.707371-15.479553 5.722964-21.727513 0.155939l-0.504203-0.467817-0.05198 0.05198c-24.731939-21.769096-62.323655-21.847066-85.844467 0.150741l-0.774497 0.732914c-6.050437 5.858112-15.99935 5.717766-22.231716-0.311879-6.060832-5.873706-6.357117-15.167675-0.784893-21.062172l0.467817-0.467817c34.504122-33.422944 90.174376-34.316995 127.69332-3.233137l1.127959 0.951228zM755.296162 422.402599l0.670539 0.571777c0.571777 0.426234 1.117563 0.888853 1.63736 1.398253 6.227168 6.029645 6.372711 15.671878 0.322274 21.52999-5.889299 5.707371-15.479553 5.722964-21.727513 0.155939l-0.504203-0.467817-0.051979 0.05198c-24.731939-21.769096-62.323655-21.847066-85.844467 0.150741l-0.774498 0.732914c-6.050437 5.858112-15.99935 5.717766-22.231716-0.311879-6.060832-5.873706-6.357117-15.167675-0.784893-21.062172l0.467817-0.467817c34.504122-33.422944 90.174376-34.316995 127.69332-3.233137l1.127959 0.951228z"
    fill="#4D4132" p-id="2618"></path>
</svg>