<svg t="1661326788710" class="icon" viewBox="0 0 1107 1024" version="1.1" xmlns="http://www.w3.org/2000/svg" p-id="2603"
  width="200" height="200">
  <!-- 小辫子 -->
  <path
    d="M961.624365 706.923858h135.147209a10.395939 10.395939 0 0 0 10.395939-10.395939v-124.751269c0-74.642843-60.504365-135.147208-135.147208-135.147208h-135.147209a10.395939 10.395939 0 0 0-10.395939 10.395939v124.751269c0 74.642843 60.504365 135.147208 135.147208 135.147208zM140.345178 706.923858H10.395939a10.395939 10.395939 0 0 1-10.395939-10.395939v-124.751269c0-74.642843 60.504365-135.147208 135.147208-135.147208h129.949239a10.395939 10.395939 0 0 1 10.395939 10.395939v124.751269c0 74.642843-60.504365 135.147208-135.147208 135.147208z"
    fill="#4D4132" p-id="2605"></path>
  <!-- 头发圆形 -->
  <path
    d="M161.137056 0m363.857868 0l51.979695 0q363.857868 0 363.857868 363.857868l0 0q0 363.857868-363.857868 363.857868l-51.979695 0q-363.857868 0-363.857868-363.857868l0 0q0-363.857868 363.857868-363.857868Z"
    fill="#4D4132" p-id="2610"></path>
  <!-- 头发-高光大 -->
  <!-- <path
    d="M593.930396 49.682193c119.137462 18.868629 215.549401 93.563452 266.796183 193.187736l-0.161137 0.114355a28.588832 28.588832 0 1 1-51.465097 22.346071c-43.247107-83.739289-123.763655-146.84264-223.351553-164.276629l-5.083614-0.847269-30.808366-4.880894 0.07797-0.514599a26.000244 26.000244 0 0 1 7.973685-50.311147l0.083168-0.509401 35.938761 5.691777z"
    fill="#807567" p-id="2619"></path> -->
  <!-- 头发-高光-小 -->
  <!-- <path
    d="M862.862944 343.06599m-31.187817 0a31.187817 31.187817 0 1 0 62.375634 0 31.187817 31.187817 0 1 0-62.375634 0Z"
    fill="#807567" p-id="2620"></path> -->
  <path
    d="M545.786802 218.314721h10.395939c149.280487 0 270.294416 121.013929 270.294416 270.294416v181.928934c0 152.149766-123.342619 275.492386-275.492385 275.492386h-5.19797c-149.280487 0-270.294416-121.013929-270.294416-270.294416V488.609137c0-149.280487 121.013929-270.294416 270.294416-270.294416z"
    fill="#F2DCC9" p-id="2611"></path>
</svg>