<svg t="1661326788710" class="icon" viewBox="0 0 1107 1024" version="1.1" xmlns="http://www.w3.org/2000/svg" p-id="2603"
  width="200" height="200">
  <!-- 前卷刘海 -->
  <path
    d="M245.642906 528.071749c25.36122 0 45.919283 21.586655 45.919282 48.215247S271.004126 624.502242 245.642906 624.502242s-45.919283-21.586655-45.919283-48.215246S220.281686 528.071749 245.642906 528.071749z m532.663677-4.591928c25.36122 0 45.919283 21.586655 45.919282 48.215246s-20.558063 48.215247-45.919282 48.215247-45.919283-21.586655-45.919283-48.215247 20.558063-48.215247 45.919283-48.215246zM268.602547 436.233184c25.36122 0 45.919283 21.586655 45.919283 48.215246S293.963767 532.663677 268.602547 532.663677s-45.919283-21.586655-45.919282-48.215247S243.241327 436.233184 268.602547 436.233184z m132.137327-57.647067c0 38.723731-31.638386 70.109561-70.660591 70.10956C291.052484 448.695677 259.418691 417.314439 259.418691 378.586117c0-38.719139 31.638386-70.104969 70.660592-70.104969 23.216789 0 43.820771 11.107874 56.70113 28.263318l-0.036736-0.518888c-0.091839-1.446457-0.137758-2.906691-0.137758-4.376107 0-38.719139 31.638386-70.109561 70.660592-70.109561a70.738655 70.738655 0 0 1 58.886888 31.344503A70.724879 70.724879 0 0 1 575.035695 261.73991c39.022206 0 70.660592 31.390422 70.660592 70.109561 0 1.469417-0.045919 2.92965-0.137758 4.376107l-0.036735 0.518888a70.738655 70.738655 0 0 1 56.70113-28.263318c39.026798 0 70.660592 31.38583 70.660592 70.104969 0 20.833578-9.160897 39.545686-23.698942 52.389309 3.085776-0.64287 6.290942-0.973489 9.564987-0.973489 26.017865 0 47.108592 20.925417 47.108591 46.736646 0 25.815821-21.090726 46.741238-47.108591 46.741238-26.013274 0-47.104-20.925417-47.104-46.741238 0-12.081363 4.61948-23.097399 12.209937-31.395013-6.819013 2.181166-14.088036 3.352108-21.632574 3.352107-39.022206 0-70.660592-31.38583-70.660592-70.10956 0-1.469417 0.045919-2.92965 0.137758-4.376108l0.032143-0.514296a70.738655 70.738655 0 0 1-56.696538 28.263318 70.738655 70.738655 0 0 1-58.886888-31.344502 70.724879 70.724879 0 0 1-58.882296 31.344502c-23.216789 0-43.816179-11.112466-56.696538-28.263318l0.032144 0.514296c0.091839 1.446457 0.137758 2.906691 0.137757 4.376108z"
    fill="#4D4132" p-id="1913"></path>

  <!-- 发圈 -->
  <path
    d="M511.974744 123.982063c177.523946 0 321.434978 143.911031 321.434978 321.434977 0 15.589596-1.111247 30.922045-3.255677 45.919283C807.869417 335.559749 673.904502 215.820628 511.974744 215.820628c-161.93435 0-295.899265 119.743713-318.1793 275.515695A324.098296 324.098296 0 0 1 190.539767 445.41704c0-177.523946 143.911031-321.434978 321.434977-321.434977z"
    fill="#E88080" p-id="1920"></path>
</svg>