<svg
  t="1662105165511"
  class="icon"
  viewBox="0 0 100 500"
  version="1.1"
  xmlns="http://www.w3.org/2000/svg"
  p-id="3553"
>
  <g transform="translate(4, 168) scale(0.07)">
    <title>earrings - irregular</title>
    <path
      d="M280.036 355S110.751 483.826 93.03 627.669c-17.721 143.85-31.842 327.397 151.709 327.397 183.55 0 282.381-132.384 225.908-327.397C414.171 432.659 330.812 355 330.812 355"
      fill="$fillColor"
      p-id="3554"
    ></path>
    <path
      d="M299.152 354.998m-63.536 0a63.536 63.536 0 1 0 127.072 0 63.536 63.536 0 1 0-127.072 0Z"
      fill="#040000"
      p-id="3555"
    ></path>
    <path
      d="M54.085 189.534c31.785-7.774 61.153-20.228 91.413-32.37 52.847-21.208 114.126-91.521 176.332-72.567 43.489 13.269 48.839 67.4 41.904 105.416-9.148 50.137-64.432 82.158-64.196 134.516-0.219-48.87 56.795-121.407 12.114-162.154-33.25-30.325-89.756-8.587-126.157 3.304-24.428 7.981-46.076 23.768-70.965 30.452-21.664 5.82-46.179-10.086-60.445-6.597z"
      fill="#040000"
      p-id="3556"
    ></path>
  </g>
</svg>
