<svg
  t="1662105165511"
  class="icon"
  viewBox="0 0 100 500"
  version="1.1"
  xmlns="http://www.w3.org/2000/svg"
  p-id="3553"
>
  <g transform="translate(-5, 160) scale(0.21)">
	  <path 
      d="M137.7,130c0,0-44,27-48.6,57.2c-4.6,30.2-8.3,68.7,39.5,68.7c47.7,0,73.5-27.8,58.8-68.7
		C172.6,146.3,151,130,151,130"
      fill="$fillColor"
    />
    <g>
      <path 
        d="M148.4,111.5h-7.8c-2.1,0-3.8-1.7-3.8-3.8V37.3c0-2.1,1.7-3.8,3.8-3.8h7.8c2.1,0,3.8,1.7,3.8,3.8v70.4
			C152.2,109.8,150.5,111.5,148.4,111.5z"
        fill="$fillColor"
      />
      <path 
        d="M119.7,126.1c0,11,11.1,20,24.8,20c13.7,0,24.8-8.9,24.8-20c0-11-11.1-20-24.8-20
          C130.8,106.2,119.7,115.1,119.7,126.1L119.7,126.1z M119.7,126.1"
        fill="#ffffff"
        />
      <!-- <circle
        cx="143"
        cy="35.7"
        r="18.3"
        fill="$fillColor"
      /> -->
    </g>
  </g>
</svg>
