<svg
  xmlns="http://www.w3.org/2000/svg"
  version="1.1"
  xmlns:xlink="http://www.w3.org/1999/xlink"
  xmlns:svgjs="http://svgjs.dev/svgjs"
  viewBox="0 0 800 800"
>
  <defs>
    <radialGradient id="ccclaymoji-grad-dark" r="93%" cx="20%" cy="20%">
      <stop offset="70%" stop-color="hsl(70, 69%, 50%)" stop-opacity="0"></stop>
      <stop offset="97%" stop-color="#86a600" stop-opacity="1"></stop>
    </radialGradient>
    <radialGradient id="ccclaymoji-grad-light" r="65%" cx="28%" cy="20%">
      <stop offset="0%" stop-color="#efff61" stop-opacity="0.75"></stop>
      <stop
        offset="100%"
        stop-color="hsl(70, 69%, 50%)"
        stop-opacity="0"
      ></stop>
    </radialGradient>
    <filter
      id="ccclaymoji-blur"
      x="-100%"
      y="-100%"
      width="400%"
      height="400%"
      filterUnits="objectBoundingBox"
      primitiveUnits="userSpaceOnUse"
      color-interpolation-filters="sRGB"
    >
      <feGaussianBlur
        stdDeviation="30"
        x="0%"
        y="0%"
        width="100%"
        height="100%"
        in="SourceGraphic"
        edgeMode="none"
        result="blur"
      ></feGaussianBlur>
    </filter>
    <filter
      id="inner-blur"
      x="-100%"
      y="-100%"
      width="400%"
      height="400%"
      filterUnits="objectBoundingBox"
      primitiveUnits="userSpaceOnUse"
      color-interpolation-filters="sRGB"
    >
      <feGaussianBlur
        stdDeviation="2"
        x="0%"
        y="0%"
        width="100%"
        height="100%"
        in="SourceGraphic"
        edgeMode="none"
        result="blur"
      ></feGaussianBlur>
    </filter>
    <filter
      id="eye-shadow"
      x="-100%"
      y="-100%"
      width="400%"
      height="400%"
      filterUnits="objectBoundingBox"
      primitiveUnits="userSpaceOnUse"
      color-interpolation-filters="sRGB"
    >
      <feDropShadow
        stdDeviation="10"
        dx="10"
        dy="10"
        flood-color="#000000"
        flood-opacity="0.2"
        x="0%"
        y="0%"
        width="100%"
        height="100%"
        result="dropShadow"
      ></feDropShadow>
    </filter>
    <linearGradient
      gradientTransform="rotate(-25)"
      id="eye-light"
      x1="50%"
      y1="0%"
      x2="50%"
      y2="100%"
    >
      <stop offset="20%" stop-color="#555555" stop-opacity="1"></stop>
      <stop offset="100%" stop-color="black" stop-opacity="0"></stop>
    </linearGradient>
    <linearGradient id="mouth-light" x1="50%" y1="0%" x2="50%" y2="100%">
      <stop offset="0%" stop-color="#ff9667" stop-opacity="1"></stop>
      <stop
        offset="100%"
        stop-color="hsl(3, 100%, 51%)"
        stop-opacity="0"
      ></stop>
    </linearGradient>
    <filter
      id="mouth-shadow"
      x="-100%"
      y="-100%"
      width="400%"
      height="400%"
      filterUnits="objectBoundingBox"
      primitiveUnits="userSpaceOnUse"
      color-interpolation-filters="sRGB"
    >
      <feDropShadow
        stdDeviation="10"
        dx="10"
        dy="10"
        flood-color="#c20000"
        flood-opacity="0.2"
        x="0%"
        y="0%"
        width="100%"
        height="100%"
        result="dropShadow"
      ></feDropShadow>
    </filter>
  </defs>
  <g stroke-linecap="round">
    <path
      d="M585.5 450C585.5 563.495 513.495 655.5 400 655.5C286.5055 655.5 214.5 563.495 214.5 450C214.5 336.5055 286.5055 244.5 400 244.5C513.495 244.5 585.5 336.5055 585.5 450Z "
      fill="#86a600"
      opacity="0.25"
      filter="url(#ccclaymoji-blur)"
    ></path>
    <path
      d="M585.5 399.99999617554647C585.5 507.6896253315567 507.68962915601026 594.9884872241398 400 594.9884872241398C292.3108452685422 594.9884872241398 214.5 507.6896253315567 214.5 399.99999617554647C214.5 292.3108414440887 292.3108452685422 205.01150512695312 400 205.01150512695312C507.68962915601026 205.01150512695312 585.5 292.3108414440887 585.5 399.99999617554647Z "
      fill="hsl(70, 69%, 50%)"
    ></path>
    <path
      d="M585.5 399.99999617554647C585.5 507.6896253315567 507.68962915601026 594.9884872241398 400 594.9884872241398C292.3108452685422 594.9884872241398 214.5 507.6896253315567 214.5 399.99999617554647C214.5 292.3108414440887 292.3108452685422 205.01150512695312 400 205.01150512695312C507.68962915601026 205.01150512695312 585.5 292.3108414440887 585.5 399.99999617554647Z "
      fill="url(#ccclaymoji-grad-dark)"
    ></path>
    <path
      d="M585.5 399.99999617554647C585.5 507.6896253315567 507.68962915601026 594.9884872241398 400 594.9884872241398C292.3108452685422 594.9884872241398 214.5 507.6896253315567 214.5 399.99999617554647C214.5 292.3108414440887 292.3108452685422 205.01150512695312 400 205.01150512695312C507.68962915601026 205.01150512695312 585.5 292.3108414440887 585.5 399.99999617554647Z "
      fill="url(#ccclaymoji-grad-light)"
    ></path>
    <ellipse
      rx="18"
      ry="25"
      cx="284"
      cy="375"
      fill="black"
      filter="url(#eye-shadow)"
    ></ellipse>
    <ellipse
      rx="18"
      ry="25"
      cx="284"
      cy="375"
      fill="url(#eye-light)"
      filter="url(#inner-blur)"
    ></ellipse>
    <ellipse
      rx="52.5"
      ry="54"
      cx="435"
      cy="375"
      fill="black"
      filter="url(#eye-shadow)"
    ></ellipse>
    <ellipse
      rx="52.5"
      ry="54"
      cx="435"
      cy="375"
      fill="url(#eye-light)"
      filter="url(#inner-blur)"
    ></ellipse>
    <path
      d="M325.5 516.5Q375.5 394.5 424.5 516.5 "
      stroke-width="20"
      stroke="hsl(3, 100%, 51%)"
      fill="none"
      filter="url(#mouth-shadow)"
    ></path>
    <path
      d="M325.5 516.5Q375.5 394.5 424.5 516.5 "
      stroke-width="6.666666666666667"
      stroke="url(#mouth-light)"
      fill="none"
      filter="url(#inner-blur)"
    ></path>
  </g>
</svg>
